<svg width="263" height="260" viewBox="0 0 263 260" fill="none" xmlns="http://www.w3.org/2000/svg">
<g filter="url(#filter0_d_7409_58412)">
<path d="M213.238 7.03058H183.604C183.531 7.03058 183.457 7.03058 183.39 7.03058L155.762 7C146.074 7 137.67 9.74625 131.444 14.9513C126.318 19.2388 120.196 27.3797 120.159 41.8388C120.128 52.206 123.45 61.032 129.756 67.3563C134.612 72.2249 140.912 75.2892 148.196 76.3718V91.6382H104.403C101.412 75.5155 87.2102 63.2644 70.1944 63.2644H42.9216C22.499 63.2644 7.0552 78.3535 7.00015 98.3663C6.95122 114.935 18.6212 128.379 35.0192 131.768V180.472C35.0192 216.051 63.3991 245 98.2869 245H154.827C158.545 245 161.555 241.991 161.555 238.272C161.555 234.553 158.545 231.544 154.827 231.544C127.358 231.544 105.015 208.632 105.015 180.472V161.597H148.545C186.95 161.597 218.198 133.23 218.198 98.3663V76.6042C235.134 74.1883 248.199 59.5885 248.199 41.9978C248.199 22.7252 232.517 7.04281 213.244 7.04281L213.238 7.03058Z" fill="white" stroke="white"/>
<path d="M213.237 13.7583H183.414C187.304 13.7583 190.827 14.5106 194.203 15.9296C204.35 20.2049 211.47 30.2174 211.47 41.8997C211.47 41.8997 211.47 41.9058 211.47 41.9119C211.47 41.918 211.47 41.918 211.47 41.9242V70.2185H213.237C228.828 70.2185 241.464 57.5821 241.464 41.9914C241.464 26.4008 228.828 13.7644 213.237 13.7644V13.7583Z" fill="url(#paint0_linear_7409_58412)"/>
<path d="M154.298 70.0776H154.922V98.0661C186.666 95.1975 211.45 71.1357 211.468 41.8812C211.462 30.2111 204.343 20.2048 194.202 15.9355C190.819 14.5104 187.284 13.7581 183.382 13.7581C183.351 13.7581 155.76 13.7275 155.76 13.7275C140.867 13.7275 126.94 21.373 126.885 41.8567C126.836 59.2639 137.864 70.0837 154.298 70.0837V70.0776Z" fill="url(#paint1_linear_7409_58412)"/>
<path d="M148.534 98.3592H98.2754V154.862H148.534C183.287 154.862 211.459 129.565 211.459 98.3592V41.8562C211.459 73.0619 183.287 98.3592 148.534 98.3592ZM127.885 137.645C121.744 137.645 116.771 132.666 116.771 126.531C116.771 120.396 121.75 115.418 127.885 115.418C134.019 115.418 138.998 120.396 138.998 126.531C138.998 132.666 134.019 137.645 127.885 137.645Z" fill="url(#paint2_linear_7409_58412)"/>
<path d="M98.2776 180.465V115.466C98.2776 115.466 98.247 104.628 98.247 97.9675C98.247 82.5114 85.684 69.9851 70.1851 69.9851H42.9123C27.4134 69.9851 13.7678 80.8111 13.7189 98.3773C13.676 114.476 26.8018 125.204 41.7379 125.828V180.465C41.7379 212.386 67.0536 238.265 98.2776 238.265H154.817C123.593 238.265 98.2776 212.386 98.2776 180.465Z" fill="url(#paint3_linear_7409_58412)"/>
</g>
<defs>
<filter id="filter0_d_7409_58412" x="0.8" y="0.8" width="261.599" height="258.4" filterUnits="userSpaceOnUse" color-interpolation-filters="sRGB">
<feFlood flood-opacity="0" result="BackgroundImageFix"/>
<feColorMatrix in="SourceAlpha" type="matrix" values="0 0 0 0 0 0 0 0 0 0 0 0 0 0 0 0 0 0 127 0" result="hardAlpha"/>
<feOffset dx="4" dy="4"/>
<feGaussianBlur stdDeviation="4.85"/>
<feComposite in2="hardAlpha" operator="out"/>
<feColorMatrix type="matrix" values="0 0 0 0 0 0 0 0 0 0 0 0 0 0 0 0 0 0 0.35 0"/>
<feBlend mode="normal" in2="BackgroundImageFix" result="effect1_dropShadow_7409_58412"/>
<feBlend mode="normal" in="SourceGraphic" in2="effect1_dropShadow_7409_58412" result="shape"/>
</filter>
<linearGradient id="paint0_linear_7409_58412" x1="183.414" y1="41.9914" x2="241.464" y2="41.9914" gradientUnits="userSpaceOnUse">
<stop stop-color="#2B2B65"/>
<stop offset="1" stop-color="#35A7DF"/>
</linearGradient>
<linearGradient id="paint1_linear_7409_58412" x1="126.885" y1="55.8938" x2="211.462" y2="55.8938" gradientUnits="userSpaceOnUse">
<stop stop-color="#2B2B65"/>
<stop offset="1" stop-color="#1D70B6"/>
</linearGradient>
<linearGradient id="paint2_linear_7409_58412" x1="98.2754" y1="98.3592" x2="211.459" y2="98.3592" gradientUnits="userSpaceOnUse">
<stop stop-color="#2E4B82"/>
<stop offset="0.25" stop-color="#30669E"/>
<stop offset="0.73" stop-color="#35A7DF"/>
</linearGradient>
<linearGradient id="paint3_linear_7409_58412" x1="84.2711" y1="211.365" x2="84.2711" y2="79.2269" gradientUnits="userSpaceOnUse">
<stop stop-color="#006633"/>
<stop offset="1" stop-color="#92BF1F"/>
</linearGradient>
</defs>
</svg>
